<mxfile host="65bd71144e" pages="1">
    <diagram id="7MmyRdp_7-yGdt9PXK2R" name="Page-1">
        <mxGraphModel dx="1180" dy="634" grid="1" gridSize="10" guides="1" tooltips="1" connect="1" arrows="1" fold="1" page="1" pageScale="1" pageWidth="850" pageHeight="1100" math="0" shadow="0">
            <root>
                <mxCell id="0"/>
                <mxCell id="1" parent="0"/>
                <mxCell id="14" style="edgeStyle=orthogonalEdgeStyle;html=1;exitX=0.5;exitY=1;exitDx=0;exitDy=0;entryX=0.5;entryY=0;entryDx=0;entryDy=0;fontFamily=Times New Roman;fontSize=18;rounded=0;jumpSize=6;strokeWidth=2;" parent="1" source="7" target="8" edge="1">
                    <mxGeometry relative="1" as="geometry">
                        <Array as="points">
                            <mxPoint x="638" y="190"/>
                            <mxPoint x="510" y="190"/>
                        </Array>
                    </mxGeometry>
                </mxCell>
                <mxCell id="62" style="edgeStyle=orthogonalEdgeStyle;html=1;exitX=0.5;exitY=1;exitDx=0;exitDy=0;entryX=0.5;entryY=0;entryDx=0;entryDy=0;fontSize=16;fontColor=default;rounded=0;strokeWidth=2;fontFamily=Times New Roman;" parent="1" source="7" target="11" edge="1">
                    <mxGeometry relative="1" as="geometry">
                        <Array as="points">
                            <mxPoint x="638" y="190"/>
                            <mxPoint x="791" y="190"/>
                        </Array>
                    </mxGeometry>
                </mxCell>
                <mxCell id="63" value="depth image" style="edgeLabel;html=1;align=center;verticalAlign=middle;resizable=0;points=[];fontSize=16;fontColor=default;fontFamily=Times New Roman;" parent="62" vertex="1" connectable="0">
                    <mxGeometry x="-0.9151" y="-1" relative="1" as="geometry">
                        <mxPoint y="7" as="offset"/>
                    </mxGeometry>
                </mxCell>
                <mxCell id="7" value="depth camera" style="rounded=1;whiteSpace=wrap;html=1;fontSize=18;strokeWidth=2;fontFamily=Times New Roman;" parent="1" vertex="1">
                    <mxGeometry x="563" y="112" width="150" height="40" as="geometry"/>
                </mxCell>
                <mxCell id="18" style="edgeStyle=orthogonalEdgeStyle;html=1;exitX=0.5;exitY=1;exitDx=0;exitDy=0;entryX=0.5;entryY=0;entryDx=0;entryDy=0;fontFamily=Times New Roman;fontSize=18;strokeWidth=2;" parent="1" source="8" target="10" edge="1">
                    <mxGeometry relative="1" as="geometry"/>
                </mxCell>
                <mxCell id="57" value="segmented pixels" style="edgeLabel;html=1;align=center;verticalAlign=middle;resizable=0;points=[];fontSize=16;fontColor=default;fontFamily=Times New Roman;" parent="18" vertex="1" connectable="0">
                    <mxGeometry x="-0.2388" relative="1" as="geometry">
                        <mxPoint as="offset"/>
                    </mxGeometry>
                </mxCell>
                <mxCell id="8" value="planar pixels detection" style="rounded=1;whiteSpace=wrap;html=1;fontSize=18;strokeWidth=2;fontFamily=Times New Roman;" parent="1" vertex="1">
                    <mxGeometry x="410" y="210" width="200" height="40" as="geometry"/>
                </mxCell>
                <mxCell id="19" style="edgeStyle=orthogonalEdgeStyle;html=1;exitX=0.5;exitY=1;exitDx=0;exitDy=0;entryX=0.5;entryY=0;entryDx=0;entryDy=0;fontFamily=Times New Roman;fontSize=18;strokeWidth=2;" parent="1" source="10" target="12" edge="1">
                    <mxGeometry relative="1" as="geometry"/>
                </mxCell>
                <mxCell id="58" value="genneral planar polygons" style="edgeLabel;html=1;align=center;verticalAlign=middle;resizable=0;points=[];fontSize=16;fontColor=default;fontFamily=Times New Roman;" parent="19" vertex="1" connectable="0">
                    <mxGeometry x="-0.2492" y="-1" relative="1" as="geometry">
                        <mxPoint y="1" as="offset"/>
                    </mxGeometry>
                </mxCell>
                <mxCell id="10" value="&lt;span class=&quot;HwtZe&quot; lang=&quot;en&quot;&gt;polygonization&lt;/span&gt;" style="rounded=1;whiteSpace=wrap;html=1;fontSize=18;strokeWidth=2;fontFamily=Times New Roman;" parent="1" vertex="1">
                    <mxGeometry x="410" y="298" width="200" height="40" as="geometry"/>
                </mxCell>
                <mxCell id="27" style="edgeStyle=orthogonalEdgeStyle;html=1;exitX=0.5;exitY=1;exitDx=0;exitDy=0;entryX=1;entryY=0.5;entryDx=0;entryDy=0;strokeWidth=2;rounded=0;fontFamily=Times New Roman;" parent="1" source="11" target="12" edge="1">
                    <mxGeometry relative="1" as="geometry"/>
                </mxCell>
                <mxCell id="61" value="polygons that the&amp;nbsp;&lt;br&gt;upper body may &lt;br&gt;collide with obstacles" style="edgeLabel;html=1;align=center;verticalAlign=middle;resizable=0;points=[];fontSize=16;fontColor=default;fontFamily=Times New Roman;" parent="27" vertex="1" connectable="0">
                    <mxGeometry x="0.4391" relative="1" as="geometry">
                        <mxPoint x="22" as="offset"/>
                    </mxGeometry>
                </mxCell>
                <mxCell id="52" style="edgeStyle=none;rounded=0;orthogonalLoop=1;jettySize=auto;html=1;exitX=0.5;exitY=1;exitDx=0;exitDy=0;fontSize=16;strokeWidth=2;fontFamily=Times New Roman;" parent="1" source="11" edge="1">
                    <mxGeometry relative="1" as="geometry">
                        <mxPoint x="791" y="480" as="targetPoint"/>
                    </mxGeometry>
                </mxCell>
                <mxCell id="60" value="HeightMap" style="edgeLabel;html=1;align=center;verticalAlign=middle;resizable=0;points=[];fontSize=16;fontColor=default;fontFamily=Times New Roman;" parent="52" vertex="1" connectable="0">
                    <mxGeometry x="0.5074" relative="1" as="geometry">
                        <mxPoint y="3" as="offset"/>
                    </mxGeometry>
                </mxCell>
                <mxCell id="11" value="construct HeightMap" style="rounded=1;whiteSpace=wrap;html=1;fontSize=18;strokeWidth=2;fontFamily=Times New Roman;" parent="1" vertex="1">
                    <mxGeometry x="686" y="298" width="210" height="40" as="geometry"/>
                </mxCell>
                <mxCell id="47" style="edgeStyle=orthogonalEdgeStyle;rounded=0;orthogonalLoop=1;jettySize=auto;html=1;exitX=0.5;exitY=1;exitDx=0;exitDy=0;entryX=0.213;entryY=0.012;entryDx=0;entryDy=0;entryPerimeter=0;fontSize=16;strokeWidth=2;fontFamily=Times New Roman;" parent="1" source="12" target="31" edge="1">
                    <mxGeometry relative="1" as="geometry">
                        <Array as="points"/>
                    </mxGeometry>
                </mxCell>
                <mxCell id="59" value="safe planar regions" style="edgeLabel;html=1;align=center;verticalAlign=middle;resizable=0;points=[];fontSize=16;fontColor=default;fontFamily=Times New Roman;" parent="47" vertex="1" connectable="0">
                    <mxGeometry x="-0.2583" y="-1" relative="1" as="geometry">
                        <mxPoint as="offset"/>
                    </mxGeometry>
                </mxCell>
                <mxCell id="12" value="&lt;span style=&quot;left: 265.916px ; top: 340.396px ; font-size: 18px ; transform: scalex(0.838261)&quot; dir=&quot;ltr&quot;&gt;polygon cutting&lt;/span&gt;" style="rounded=1;whiteSpace=wrap;html=1;fontSize=18;strokeWidth=2;fontFamily=Times New Roman;" parent="1" vertex="1">
                    <mxGeometry x="410" y="384" width="200" height="40" as="geometry"/>
                </mxCell>
                <mxCell id="31" value="footstep planning" style="rounded=1;whiteSpace=wrap;html=1;fontSize=18;strokeWidth=2;dashed=1;perimeterSpacing=2;fontFamily=Times New Roman;" parent="1" vertex="1">
                    <mxGeometry x="411" y="482" width="469" height="40" as="geometry"/>
                </mxCell>
            </root>
        </mxGraphModel>
    </diagram>
</mxfile>